<svg width="200" height="200" viewBox="0 0 200 200" fill="none" xmlns="http://www.w3.org/2000/svg">
<path d="M200 100C200 44.7658 155.234 0 100 0C44.7658 0 0 44.7658 0 100C0 149.922 36.5625 191.289 84.375 198.789V128.906H58.9842V100H84.375V77.9687C84.375 52.91 99.2971 39.0625 122.148 39.0625C133.086 39.0625 144.531 41.0156 144.531 41.0156V65.625H131.914C119.492 65.625 115.625 73.34 115.625 81.25V100H143.359L138.926 128.906H115.625V198.789C163.437 191.289 200 149.922 200 100Z" fill="url(#paint0_linear_720_1224)"/>
<path d="M138.926 128.906L143.359 100H115.625V81.25C115.625 73.34 119.492 65.625 131.914 65.625H144.531V41.0156C144.531 41.0156 133.086 39.0625 122.149 39.0625C99.2973 39.0625 84.3752 52.91 84.3752 77.9687V100H58.9844V128.906H84.3752V198.789C89.4727 199.59 94.6877 200 100 200C105.313 200 110.528 199.59 115.625 198.789V128.906H138.926Z" fill="white"/>
<defs>
<linearGradient id="paint0_linear_720_1224" x1="100" y1="0" x2="100" y2="198.789" gradientUnits="userSpaceOnUse">
<stop stop-color="#B6B388"/>
<stop offset="1" stop-color="#555E35"/>
</linearGradient>
</defs>
</svg>
