<svg id="Шар_1" data-name="Шар 1" xmlns="http://www.w3.org/2000/svg" viewBox="0 0 198.43 198.43"><defs><style>.cls-1{fill:#71743c;}.cls-2{fill:#1d1d1b;}.cls-3{fill:#fff;}.cls-4{fill:#55562e;}.cls-5{fill:#3a3920;}.cls-6{fill:#a59f63;}</style></defs><polygon class="cls-1" points="139.69 67.67 139.67 67.67 139.67 58.7 112.69 58.7 112.69 67.67 85.7 67.67 85.7 58.7 58.73 58.7 58.73 67.67 49.74 67.67 49.74 94.7 58.73 94.7 58.73 112.69 76.7 112.69 76.7 130.7 85.74 130.7 85.74 139.69 112.69 139.69 112.69 130.7 121.73 130.7 121.73 112.69 139.67 112.69 139.69 112.69 139.69 94.7 148.69 94.7 148.69 67.67 139.69 67.67"/><rect class="cls-2" x="49.74" y="58.7" width="8.97" height="8.97"/><polygon class="cls-3" points="67.68 67.67 58.71 67.67 58.71 76.65 58.71 85.62 67.68 85.62 67.68 76.65 76.66 76.65 76.66 67.67 67.68 67.67"/><rect class="cls-2" x="85.72" y="58.7" width="8.97" height="8.97"/><rect class="cls-2" x="103.74" y="58.7" width="8.97" height="8.97"/><rect class="cls-2" x="139.71" y="58.7" width="8.97" height="8.97"/><rect class="cls-2" x="94.7" y="67.68" width="8.97" height="8.97"/><rect class="cls-2" x="40.76" y="67.71" width="8.97" height="26.99"/><rect class="cls-2" x="67.74" y="40.75" width="8.97" height="26.99" transform="translate(126.47 -17.99) rotate(90)"/><rect class="cls-2" x="148.69" y="67.71" width="8.97" height="26.99"/><rect class="cls-2" x="121.73" y="40.75" width="8.97" height="26.99" transform="translate(71.97 180.46) rotate(-90)"/><rect class="cls-2" x="49.74" y="94.7" width="9" height="9"/><polygon class="cls-4" points="121.63 58.73 121.63 67.78 112.57 67.78 112.57 76.75 121.63 76.75 121.63 85.64 121.67 85.64 121.67 94.7 148.69 94.7 148.69 67.8 139.59 67.8 139.59 67.78 130.64 67.78 130.64 58.73 121.63 58.73"/><rect class="cls-2" x="58.73" y="103.7" width="8.99" height="8.99"/><rect class="cls-2" x="67.73" y="112.69" width="8.97" height="8.97"/><rect class="cls-5" x="58.73" y="94.68" width="17.97" height="9.01"/><rect class="cls-5" x="94.7" y="94.69" width="36.01" height="9.01"/><rect class="cls-5" x="121.72" y="76.73" width="9" height="26.94" transform="translate(216.42 -36.02) rotate(90)"/><polygon class="cls-5" points="121.7 112.67 130.68 112.67 130.68 94.7 121.7 94.7 121.7 103.7 103.73 103.7 103.73 121.66 121.7 121.66 121.7 112.67"/><rect class="cls-6" x="40.8" y="76.65" width="26.87" height="9.01" transform="translate(135.39 26.92) rotate(90)"/><rect class="cls-6" x="58.78" y="58.57" width="26.87" height="9.01" transform="translate(144.42 126.15) rotate(180)"/><rect class="cls-2" x="76.7" y="121.66" width="9.04" height="9.04"/><rect class="cls-2" x="85.74" y="130.7" width="8.98" height="8.98"/><polygon class="cls-6" points="112.69 133.65 112.69 127.63 112.69 121.63 103.71 121.63 103.71 112.69 94.7 112.69 94.66 130.67 94.66 133.65 94.66 139.68 103.71 139.68 112.69 139.68 112.69 133.65"/><rect class="cls-2" x="139.69" y="94.7" width="9" height="9" transform="translate(243.39 -44.99) rotate(90)"/><rect class="cls-2" x="130.7" y="103.7" width="8.99" height="8.99" transform="translate(243.39 -27) rotate(90)"/><rect class="cls-2" x="121.73" y="112.69" width="8.97" height="8.97" transform="translate(243.39 -9.04) rotate(90)"/><rect class="cls-2" x="112.69" y="121.66" width="9.04" height="9.04" transform="translate(243.39 8.98) rotate(90)"/><rect class="cls-2" x="103.7" y="130.7" width="8.98" height="8.98" transform="translate(243.39 27) rotate(90)"/><rect class="cls-2" x="94.72" y="139.69" width="8.98" height="8.98"/></svg>