<svg width="200" height="200" viewBox="0 0 200 200" fill="none" xmlns="http://www.w3.org/2000/svg">
<path d="M0 100C0 155.228 44.7715 200 100 200C155.228 200 200 155.228 200 100C200 44.7715 155.228 0 100 0C44.7715 0 0 44.7715 0 100Z" fill="url(#paint0_linear_684_1065)"/>
<path d="M100 48.3855C116.699 48.3855 118.976 48.3855 125.807 48.3855C131.88 48.3855 134.916 49.9036 137.193 50.6627C140.229 52.1807 142.506 52.9398 144.783 55.2169C147.06 57.494 148.578 59.7711 149.337 62.8072C150.096 65.0843 150.855 68.1205 151.614 74.1928C151.614 81.0241 151.614 82.5422 151.614 100C151.614 117.458 151.614 118.976 151.614 125.807C151.614 131.88 150.096 134.916 149.337 137.193C147.819 140.229 147.06 142.506 144.783 144.783C142.506 147.06 140.229 148.578 137.193 149.337C134.916 150.096 131.88 150.855 125.807 151.614C118.976 151.614 117.458 151.614 100 151.614C82.5422 151.614 81.0241 151.614 74.1928 151.614C68.1205 151.614 65.0843 150.096 62.8072 149.337C59.7711 147.819 57.494 147.06 55.2169 144.783C52.9398 142.506 51.4217 140.229 50.6627 137.193C49.9036 134.916 49.1446 131.88 48.3855 125.807C48.3855 118.976 48.3855 117.458 48.3855 100C48.3855 82.5422 48.3855 81.0241 48.3855 74.1928C48.3855 68.1205 49.9036 65.0843 50.6627 62.8072C52.1807 59.7711 52.9398 57.494 55.2169 55.2169C57.494 52.9398 59.7711 51.4217 62.8072 50.6627C65.0843 49.9036 68.1205 49.1446 74.1928 48.3855C81.0241 48.3855 83.3012 48.3855 100 48.3855ZM100 37C82.5422 37 81.0241 37 74.1928 37C67.3615 37 62.8072 38.5181 59.0121 40.0361C55.2169 41.5542 51.4217 43.8313 47.6265 47.6265C43.8313 51.4217 42.3133 54.4578 40.0361 59.0121C38.5181 62.8072 37.759 67.3615 37 74.1928C37 81.0241 37 83.3012 37 100C37 117.458 37 118.976 37 125.807C37 132.639 38.5181 137.193 40.0361 140.988C41.5542 144.783 43.8313 148.578 47.6265 152.374C51.4217 156.169 54.4578 157.687 59.0121 159.964C62.8072 161.482 67.3615 162.241 74.1928 163C81.0241 163 83.3012 163 100 163C116.699 163 118.976 163 125.807 163C132.639 163 137.193 161.482 140.988 159.964C144.783 158.446 148.578 156.169 152.374 152.374C156.169 148.578 157.687 145.542 159.964 140.988C161.482 137.193 162.241 132.639 163 125.807C163 118.976 163 116.699 163 100C163 83.3012 163 81.0241 163 74.1928C163 67.3615 161.482 62.8072 159.964 59.0121C158.446 55.2169 156.169 51.4217 152.374 47.6265C148.578 43.8313 145.542 42.3133 140.988 40.0361C137.193 38.5181 132.639 37.759 125.807 37C118.976 37 117.458 37 100 37Z" fill="white"/>
<path d="M100 67.3614C81.7831 67.3614 67.3614 81.7831 67.3614 100C67.3614 118.217 81.7831 132.639 100 132.639C118.217 132.639 132.639 118.217 132.639 100C132.639 81.7831 118.217 67.3614 100 67.3614ZM100 121.253C88.6145 121.253 78.747 112.145 78.747 100C78.747 88.6145 87.8554 78.747 100 78.747C111.386 78.747 121.253 87.8554 121.253 100C121.253 111.386 111.386 121.253 100 121.253Z" fill="white"/>
<path d="M133.398 74.1928C137.59 74.1928 140.988 70.7945 140.988 66.6024C140.988 62.4104 137.59 59.0121 133.398 59.0121C129.206 59.0121 125.807 62.4104 125.807 66.6024C125.807 70.7945 129.206 74.1928 133.398 74.1928Z" fill="white"/>
<defs>
<linearGradient id="paint0_linear_684_1065" x1="100" y1="0" x2="100" y2="200" gradientUnits="userSpaceOnUse">
<stop stop-color="#ADAC82"/>
<stop offset="1" stop-color="#646B46"/>
</linearGradient>
</defs>
</svg>
