<svg id="Шар_1" data-name="Шар 1" xmlns="http://www.w3.org/2000/svg" viewBox="0 0 566.93 566.93"><defs><style>.cls-1{fill:#71743c;}.cls-2{fill:#1d1d1b;}.cls-3{fill:#fff;}.cls-4{fill:#55562e;}.cls-5{fill:#3a3920;}.cls-6{fill:#a6a063;}</style></defs><polygon class="cls-1" points="394.15 182.5 394.07 182.5 394.07 157.96 320.32 157.96 320.32 182.5 246.53 182.5 246.53 157.96 172.78 157.96 172.78 182.5 148.18 182.5 148.18 256.39 172.78 256.39 172.78 305.58 221.91 305.58 221.91 354.83 246.62 354.83 246.62 379.39 320.31 379.39 320.31 354.83 345.02 354.83 345.02 305.58 394.07 305.58 394.15 305.58 394.15 256.39 418.75 256.39 418.75 182.5 394.15 182.5"/><rect class="cls-2" x="148.18" y="157.96" width="24.53" height="24.53"/><polygon class="cls-3" points="197.25 182.5 172.72 182.5 172.72 207.03 172.72 231.56 197.25 231.56 197.25 207.03 221.79 207.03 221.79 182.5 197.25 182.5"/><rect class="cls-2" x="246.58" y="157.96" width="24.53" height="24.53"/><rect class="cls-2" x="295.86" y="157.96" width="24.53" height="24.53"/><rect class="cls-2" x="394.19" y="157.96" width="24.53" height="24.53"/><rect class="cls-2" x="271.12" y="182.5" width="24.53" height="24.53"/><rect class="cls-2" x="123.65" y="182.59" width="24.53" height="73.8"/><rect class="cls-2" x="197.42" y="108.87" width="24.53" height="73.8" transform="translate(355.45 -63.91) rotate(90)"/><rect class="cls-2" x="418.75" y="182.59" width="24.53" height="73.8"/><rect class="cls-2" x="345.02" y="108.87" width="24.53" height="73.8" transform="translate(211.52 503.06) rotate(-90)"/><rect class="cls-2" x="148.18" y="256.39" width="24.6" height="24.6"/><polygon class="cls-4" points="344.76 158.05 344.76 182.78 319.99 182.78 319.99 207.31 344.76 207.31 344.76 231.61 344.88 231.61 344.88 256.39 418.75 256.39 418.75 182.83 393.86 182.83 393.86 182.78 369.4 182.78 369.4 158.05 344.76 158.05"/><rect class="cls-2" x="172.78" y="280.99" width="24.59" height="24.59"/><rect class="cls-2" x="197.37" y="305.58" width="24.53" height="24.53"/><rect class="cls-5" x="172.78" y="256.34" width="49.12" height="24.65"/><rect class="cls-5" x="271.12" y="256.37" width="98.47" height="24.65"/><rect class="cls-5" x="345.01" y="207.26" width="24.61" height="73.65" transform="translate(601.4 -113.23) rotate(90)"/><polygon class="cls-5" points="344.95 305.52 369.51 305.52 369.51 256.4 344.95 256.4 344.95 280.99 295.82 280.99 295.82 330.11 344.95 330.11 344.95 305.52"/><rect class="cls-6" x="123.75" y="207.04" width="73.47" height="24.65" transform="translate(379.84 58.88) rotate(90)"/><rect class="cls-6" x="172.9" y="157.6" width="73.47" height="24.65" transform="translate(419.28 339.84) rotate(180)"/><rect class="cls-2" x="221.91" y="330.11" width="24.72" height="24.72"/><rect class="cls-2" x="246.62" y="354.83" width="24.56" height="24.56"/><polygon class="cls-6" points="320.31 362.89 320.31 346.43 320.31 330.02 295.76 330.02 295.76 305.58 271.12 305.58 271.02 354.74 271.02 362.89 271.02 379.36 295.76 379.36 320.31 379.36 320.31 362.89"/><rect class="cls-2" x="394.15" y="256.39" width="24.6" height="24.6" transform="translate(675.14 -137.76) rotate(90)"/><rect class="cls-2" x="369.56" y="280.99" width="24.59" height="24.59" transform="translate(675.14 -88.57) rotate(90)"/><rect class="cls-2" x="345.02" y="305.58" width="24.53" height="24.53" transform="translate(675.14 -39.45) rotate(90)"/><rect class="cls-2" x="320.31" y="330.11" width="24.72" height="24.72" transform="translate(675.14 9.8) rotate(90)"/><rect class="cls-2" x="295.75" y="354.83" width="24.56" height="24.56" transform="translate(675.14 59.08) rotate(90)"/><rect class="cls-2" x="271.18" y="379.39" width="24.56" height="24.56"/><path class="cls-2" d="M119.24,100.82q-.81,2.25-2.25,2.25c-1.43,0-2.14-1-2.14-3.06V87.85c0-.88.54-1.49,1.63-1.83a11,11,0,0,0,7.46-3.89q2.66-3.25,2.65-8.78V46.59q0-5.4-4.18-7.76c-1.43-.74-2.15-1.56-2.15-2.45q0-2,3.27-2h19v4.49h-4.8c-2.8,0-4.6.62-5.42,1.84s-1.22,3.2-1.22,5.92V73.35c0,5.25-1.3,9.36-3.88,12.36h15.32V90.2H132Q122.6,91.33,119.24,100.82ZM146,34.34h19.3c2.11,0,3.17.75,3.17,2.25a2.21,2.21,0,0,1-1.74,2.14,5.27,5.27,0,0,0-2.09,1.07,3.63,3.63,0,0,0-.36,2v41a3.2,3.2,0,0,0,1.63,2.65,5.13,5.13,0,0,0,1.38.62,1.73,1.73,0,0,1,1.18,1.83V100c0,2-.72,3.06-2.15,3.06-.88,0-1.67-.75-2.35-2.25q-3.36-9.5-12.66-10.62H146Z"/><path class="cls-2" d="M208,34.34v4.49c-3,1-4.49,2.93-4.49,5.93V55.58a6.69,6.69,0,0,0,1,4A5,5,0,0,0,208,61.2v4.39c-3,.27-4.49,2.66-4.49,7.15v6.84c0,3.68-1,6.54-3.07,8.58s-4.87,3.06-8.47,3.06a15.13,15.13,0,0,1-7.36-1.73A15.66,15.66,0,0,1,181.06,86a6.35,6.35,0,0,1-1.53-3.58,1.84,1.84,0,0,1,.76-1.58,2.38,2.38,0,0,1,1.38-.56,2.8,2.8,0,0,1,2,1.22c.41.61.82.92,1.23.92.61,0,.92-.41.92-1.22V72.74a8,8,0,0,1,4.39-7.25,14.94,14.94,0,0,1,3.47-1.58,29.44,29.44,0,0,1,5.11-1.08q-6.33-1.83-8.78-4-4.5-3.37-4.5-10.21,0-7.86,6.54-11.64a16.77,16.77,0,0,1,5.67-2.15,60.29,60.29,0,0,1,9.34-.51Zm3.27,0h19.4c2,0,3,.75,3,2.25a2.24,2.24,0,0,1-1.73,2.09,5.7,5.7,0,0,0-2.1,1.12,3.66,3.66,0,0,0-.35,2v41a3.4,3.4,0,0,0,.46,2.09,4.19,4.19,0,0,0,2.09,1,2,2,0,0,1,1.63,2.1c0,1.49-1,2.24-3,2.24H209.86c-2.39,0-3.58-.78-3.58-2.35,0-1.08.68-1.8,2.05-2.14a6.37,6.37,0,0,0,2.5-1,3.69,3.69,0,0,0,.46-2.3Z"/><path class="cls-2" d="M268.05,41.8V82.44a3.62,3.62,0,0,0,.46,2.3,6.37,6.37,0,0,0,2.5,1c1.36.34,2,1.06,2,2.14q0,2.36-3.67,2.35H248.65c-2.05,0-3.07-.75-3.07-2.24a2.12,2.12,0,0,1,1.69-2.1,5.35,5.35,0,0,0,2.09-1,3.5,3.5,0,0,0,.41-2.09V41.8a3.33,3.33,0,0,0-.41-1.95,5.54,5.54,0,0,0-2.09-1.17,2.22,2.22,0,0,1-1.69-2.09c0-1.5,1-2.25,3.07-2.25h20.52c2.11,0,3.17.75,3.17,2.25a2.14,2.14,0,0,1-1.64,2,5.51,5.51,0,0,0-2.14,1.22A3,3,0,0,0,268.05,41.8Zm7.66,37.37V72c0-4.69-1.5-7.18-4.49-7.45v-4.8c2.65-.27,4.49-1.28,5.51-3s1.53-4.92,1.53-9.55a15.4,15.4,0,0,1,2.56-8.68q3.36-5.12,10-5.11A8.86,8.86,0,0,1,297.16,36a8.22,8.22,0,0,1,2.65,6.13,7.43,7.43,0,0,1-2.45,5.52A8,8,0,0,1,291.64,50h-.31c-3,0-5.27-1.68-6.84-5a2.55,2.55,0,0,0-.51-.55,1,1,0,0,1-.2-.15c-.21,0-.48.32-.82,1a4.21,4.21,0,0,0-.51,2v1a27.36,27.36,0,0,1-1.07,8.48,9.22,9.22,0,0,1-3.73,4.9,28.34,28.34,0,0,1,6.48.71,11.76,11.76,0,0,1,4.55,1.94,10.08,10.08,0,0,1,3.37,3.88,10.27,10.27,0,0,1,1.33,4.6v8.07c0,.88.27,1.32.83,1.32s.83-.3,1.24-.91c.83-1,1.53-1.43,2.08-1.43a2,2,0,0,1,1.45.76,2.28,2.28,0,0,1,.73,1.58,7.05,7.05,0,0,1-1.58,3.68,15.94,15.94,0,0,1-3.53,3.68,14.17,14.17,0,0,1-7.25,1.73c-3.68,0-6.53-1-8.58-3.16S275.71,83,275.71,79.17Z"/><path class="cls-2" d="M331.78,39.35a1.29,1.29,0,0,0-.72,1.33l.41,1.94,11.45,21.16L335.25,80.3,314.82,41.08A6.48,6.48,0,0,0,313,38.63c-1.22-.68-1.83-1.4-1.83-2.15,0-1.43,1.05-2.14,3.16-2.14h16.55c2.17,0,3.26.75,3.26,2.25A2.35,2.35,0,0,1,333,38.53Zm-18.39,43.4A7.75,7.75,0,0,1,315.76,77a8,8,0,0,1,5.88-2.35q4.75,0,7.43,5c.34,1.09.65,1.64.93,1.64.82,0,1.37-.89,1.65-2.66l2.47,4.39-1.23,2.56a11.48,11.48,0,0,1-10.32,5.82,9.16,9.16,0,0,1-6.55-2.5A8.21,8.21,0,0,1,313.39,82.75Zm30.74-43.82a6.84,6.84,0,0,1-1.89-1,1.77,1.77,0,0,1-.35-1.27c0-1.57,1.32-2.35,4-2.35h10c2,0,3,.78,3,2.35,0,.88-.62,1.6-1.84,2.14a10,10,0,0,0-5,4.91l-.93,2-6.78,15-2.5-5.07,4.46-10a7.84,7.84,0,0,0,.65-3.26Q346.89,40.05,344.13,38.93Z"/><path class="cls-2" d="M393.56,85.51l1.33.4a2.07,2.07,0,0,1,1.53,2.15c0,1.43-1,2.14-3,2.14H373c-2,0-3.06-.75-3.06-2.24a2,2,0,0,1,1.68-2,4.62,4.62,0,0,0,2.1-1,3.76,3.76,0,0,0,.41-2.14V41.8a3.33,3.33,0,0,0-.41-1.95,6.06,6.06,0,0,0-2.15-1.22,2,2,0,0,1-1.63-2q0-2.25,3.06-2.25h20.43c2,0,3,.75,3,2.25a2,2,0,0,1-1.53,2l-1.33.41c-.75.41-1.12,1.33-1.12,2.76v41C392.44,84.25,392.81,85.17,393.56,85.51Zm32-47.8a5.55,5.55,0,0,0-3,1.94,7,7,0,0,0-.81,3.78V80.09a10.06,10.06,0,0,0,.81,4.7,4.73,4.73,0,0,0,3,2v4.39a21,21,0,0,1-16.75-7.63q-6.54-7.62-6.54-19.22h-6.43v-4.6h6.43q0-11.49,6.64-19a21.25,21.25,0,0,1,16.65-7.53Zm3.37,49.12a4.3,4.3,0,0,0,2.91-2.09,10,10,0,0,0,.87-4.65V43.43c0-3-1.27-4.9-3.78-5.72V33.22a20.3,20.3,0,0,1,16.75,8.22q6.42,8.22,6.43,20.88T445.75,83.1a20.28,20.28,0,0,1-16.85,8.12Z"/><path class="cls-2" d="M173.61,525.35h.9v8.36A39.79,39.79,0,0,1,164,532.14a30,30,0,0,1-9.26-4q-10-6-10-17.16a15.94,15.94,0,0,1,4.18-11.2,13.82,13.82,0,0,1,10.63-4.55,13,13,0,0,1,9.76,4.21,13.77,13.77,0,0,1,4,9.81q0,8.94-8.72,11a2,2,0,0,0-.34.71,7.79,7.79,0,0,1-.7,1.4,8.33,8.33,0,0,0,4.05,2.19A21.93,21.93,0,0,0,173.61,525.35Zm-17.34-85.74,2.46-.54a78.45,78.45,0,0,1,8.59-3.43,35.55,35.55,0,0,1,7.19-1.26v7.71a26.32,26.32,0,0,0-12.72,7.62,25.07,25.07,0,0,0-6.66,12.17c-.87,4.32-2.37,6.48-4.47,6.48-2.81,0-4.21-1.56-4.21-4.7v-23q0-5.58,3.51-5.58a3.05,3.05,0,0,1,2.8,1.39l1.58,2.27A2.06,2.06,0,0,0,156.27,439.61Zm54.14,89.57a45.13,45.13,0,0,1-9.76,3.49,64.05,64.05,0,0,1-13.07,1h-7.84v-8.36q5.06,0,7.32-2.54t2.26-9.71V498.24q0-10.68-9.58-11.72v-7.87q5.32,0,7.45-2.79t2.13-9.59V453.73a13.42,13.42,0,0,0-2.4-8.37c-1.59-2.09-4-3.14-7.18-3.14v-7.84h7.7q15.39,0,23.8,6.28t8.4,17.94a23.76,23.76,0,0,1-2.44,10.81,19.39,19.39,0,0,1-7.14,7.84,28.68,28.68,0,0,1-5.84,3,86.84,86.84,0,0,1-8.63,2.44,70.31,70.31,0,0,1,7.76,1.83,53.19,53.19,0,0,1,5.66,2.36q11.85,6.27,11.85,21.26Q220.86,521.86,210.41,529.18Z"/><path class="cls-2" d="M276.43,455.12v60.82q0,8.19,8,9.06v8.36q-19.35,0-30.32-12.72t-11-35.2q0-20,9.06-33.11a45.84,45.84,0,0,1,14-12.89q8.44-5.06,16.12-5.06h2.09v8.54Q276.43,444,276.43,455.12Zm38.51,18.12q-3.3,0-4.35-4.53Q304.32,445,290,442.92v-8.36a40.09,40.09,0,0,1,6.79,1.39c.7.23,2.85,1.05,6.45,2.44a14.68,14.68,0,0,0,4.7,1.22,3.06,3.06,0,0,0,3-1.74l1-1.92a3.27,3.27,0,0,1,3.14-1.57q3.83,0,3.83,4.53V468C319,471.5,317.62,473.24,314.94,473.24ZM290,525a19.45,19.45,0,0,0,12.81-4.79,25.09,25.09,0,0,0,8-12.11c1.16-2.79,2.54-4.19,4.16-4.19a3.82,3.82,0,0,1,2.77,1.22,4.27,4.27,0,0,1,1.21,3.14q0,3.66-2.77,8.45a38.82,38.82,0,0,1-7.27,9q-8.67,7.66-18.88,7.66Z"/><path class="cls-2" d="M376,444.85a2.19,2.19,0,0,0-1.22,2.26l.7,3.32,19.54,36.11L382,514.72,347.11,447.8a11,11,0,0,0-3.13-4.18c-2.1-1.16-3.14-2.38-3.14-3.66q0-3.66,5.4-3.66h28.23q5.58,0,5.58,3.84a4,4,0,0,1-1.92,3.31Zm-31.37,74a13.23,13.23,0,0,1,4.05-9.76,13.7,13.7,0,0,1,10-4q8.1,0,12.68,8.54c.58,1.86,1.11,2.79,1.58,2.79q2.1,0,2.82-4.53l4.22,7.49-2.11,4.36q-6.17,9.93-17.6,9.93a15.57,15.57,0,0,1-11.18-4.27A14,14,0,0,1,344.67,518.9Zm52.46-74.77a11.91,11.91,0,0,1-3.23-1.65,3,3,0,0,1-.61-2.18q0-4,6.8-4h17.08q5.06,0,5.05,4,0,2.26-3.14,3.66a17.1,17.1,0,0,0-8.55,8.36L409,455.81l-11.56,25.66-4.28-8.66,7.61-17a13.31,13.31,0,0,0,1.11-5.57C401.83,447.44,400.26,445.4,397.13,444.13Z"/></svg>