<svg id="Шар_1" data-name="Шар 1" xmlns="http://www.w3.org/2000/svg" viewBox="0 0 390.99 568.43"><defs><style>.cls-1{fill:#fff;}.cls-2{font-size:137.87px;stroke:#1d1d1b;stroke-miterlimit:10;stroke-width:3px;font-family:GunnyRewritten, Gunny Rewritten;}</style></defs><path d="M209.65,29.6c4.12.28,8.25.7,12.38.81,23,.6,45.93,1.49,68.48,6.24,5.91,1.24,11.5,4.07,17.2,6.28,4.11,1.6,5.63,5.14,5.63,9.15,0,7.47-.26,14.94-.56,22.4-.17,4.33.21,8.14,4.27,11,6.67,4.67,6.35,14.19-.3,18.92-2.17,1.54-5.93,3.58-5.8,5.11.43,5,1.13,10.68,4,14.43,4.22,5.6,10.25,9.88,15.67,14.54,9.81,8.43,19.69,17.18,23.07,30,2.49,9.5,3.31,19.65,3.41,29.52.52,48.13.65,96.26.69,144.39q.06,57.94-.48,115.9a293.69,293.69,0,0,1-1.78,31.39c-2,17.08-11.81,29.3-26,38.3-18.39,11.69-39.06,16.65-60.27,19.47-13,1.74-26.15,2.26-39.23,3.37a44,44,0,0,0-4.37.78h-37c-8.76-.66-17.54-1.19-26.3-2-26.77-2.52-53.19-6.65-77.42-19.26C67,521,54,507.45,51.25,486.71c-1.49-11.17-1.6-22.57-1.68-33.88Q49,359.4,48.77,266c0-26.81.73-53.62,1.12-80.43.29-19.48,10.69-33.35,24.91-45.18,5.37-4.47,10.52-9.21,15.69-13.92,5.4-4.91,5.24-11.59,5.3-18.08,0-.94-1.39-2-2.29-2.82-2.44-2.23-5.27-4.1-7.39-6.58-5.42-6.33-4.87-12.17,1.78-17,3.16-2.3,3.81-4.87,2.76-8.18-2.82-8.92-.1-17.58,2.3-25.83,1-3.41,6-6.85,9.86-8a160.26,160.26,0,0,1,29.7-6.15c19.2-1.8,38.5-2.45,57.77-3.6a29.88,29.88,0,0,0,3.36-.58Zm-108,80.6c1.53,14.69-8.49,22.87-18.7,31-3.52,2.8-6.81,5.87-10.14,8.89C61.07,160.77,55.51,174,55.65,190c.18,20.31-.68,40.64-.64,61,.15,73,.33,145.92,1,218.88a84.67,84.67,0,0,0,4.68,27.79c6.14,16.86,20.68,25.45,36.39,32,23.51,9.82,48.44,13.18,73.54,14.75,33.12,2.07,66.26,2,99.21-2.83,16.51-2.41,32.63-6.27,47.81-13.54,21.33-10.2,33-26.33,33.19-50.61.23-30.64,1.8-61.27,1.71-91.9-.2-67.12-1.08-134.25-1.67-201.37-.08-9.32-2.76-18-8.71-25a162.36,162.36,0,0,0-20.12-20c-9.1-7.54-17.18-15.27-17.63-28,0-.12-.2-.24.35.41C236.86,123.06,169.74,120.39,101.69,110.2Zm-5.3-32.8c-2.36,4.15-.19,6,4.21,7.19,25.57,7,51.89,8.76,78.09,9.55,25.06.76,50.24-.51,75.3-2,14.87-.89,29.69-3.57,44.41-6.16,9.58-1.69,9.43-2.26,9.34-11.63-.07-7.46,0-14.91,0-22.65-3.69,1.4-6.84,2.9-10.16,3.81-22.51,6.2-45.69,7.13-68.77,7.72-22.79.58-45.63.22-68.41-.75-21.19-.9-42.52-2-62.59-10.2-2.69,7.6-1.91,9.66,5.63,11.13a231,231,0,0,0,27.12,4.05c22.9,1.71,45.84,2.84,68.75,4.3,2.44.16,5.26.35,7.14,1.64s3.66,4,3.47,5.91-2.66,4.16-4.66,5c-2.5,1-5.55,1-8.35.94-13.47-.54-27-.91-40.39-2C136.65,81.59,116.84,79.4,96.39,77.4ZM124.1,46.09l.07,1.87c12.27.87,24.54,2.43,36.81,2.47,26.81.08,53.63-.66,80.44-.88,1.82,0,3.65,1.6,5.48,2.45-1.77,1.12-3.45,3-5.32,3.21-6.94.72-14,1.13-20.94,1.19-17,.16-34,.05-50.95.05v1.28c14.79,0,29.61.61,44.36-.14,23.92-1.22,47.82-3.15,71.69-5.22,6.08-.53,12-2.71,18-4.12-.06-.85-.13-1.69-.2-2.53C265.4,35.3,226.14,36.43,187,36c15.11.71,30.23,1.32,45.35,2,2.68.12,6.86-.62,6.74,3.17-.13,4-4.32,2.56-6.91,2.56-27.48.08-55-.1-82.45.19C141.2,44,132.66,45.34,124.1,46.09ZM88.79,92c2.46,6.09,7.62,8.77,13.35,10.54,17.45,5.37,35.49,7.18,53.6,8.31,41.42,2.58,82.88,3.83,124.18-1.4,9.8-1.24,19.37-4.47,28.95-7.11,2.8-.77,5.36-2.62,4.65-7.18-2.28.59-4.32,1-6.27,1.63-3.62,1.21-7.1,3.23-10.8,3.74-18.27,2.49-36.55,6.14-54.89,6.49-32.1.61-64.28-.14-96.35-1.79C125.92,104.19,106.24,102.59,88.79,92ZM202.37,78.35C166.32,75.4,129.9,76.21,94.11,67.19,98.92,73.47,185.43,82.39,202.37,78.35ZM100.64,45.87l0,1.91,14.63,4.28c-4.45-4.08-3.16-7.13.57-10.52Z"/><path class="cls-1" d="M101.69,110.2c68.05,10.19,135.17,12.86,203,1.33-.55-.65-.36-.53-.35-.41.45,12.78,8.53,20.51,17.63,28a162.36,162.36,0,0,1,20.12,20c5.95,7,8.63,15.65,8.71,25,.59,67.12,1.47,134.25,1.67,201.37.09,30.63-1.48,61.26-1.71,91.9-.18,24.28-11.86,40.41-33.19,50.61-15.18,7.27-31.3,11.13-47.81,13.54-33,4.8-66.09,4.9-99.21,2.83-25.1-1.57-50-4.93-73.54-14.75-15.71-6.57-30.25-15.16-36.39-32A84.67,84.67,0,0,1,56,469.82c-.63-73-.81-145.92-1-218.88,0-20.32.82-40.65.64-61-.14-16,5.42-29.21,17.2-39.9,3.33-3,6.62-6.09,10.14-8.89C93.2,133.07,103.22,124.89,101.69,110.2ZM93.83,342.08c4.41-.49,4.91-2.66,3.23-5.95s-3.65-6.75-5.13-10.26c-8-18.91-11.32-38.26-1.69-57.43,10.84-21.58,29.35-32.49,53.18-32.85,24.13-.35,42.45,10.74,54.19,32,2,3.59,4.26,6.55,8.57,6.66s6.83-2.5,8.85-6.17c12.76-23.2,32.72-34.45,58.88-32.28,24.1,2,41.69,14.57,50.9,37.56,1.42,3.54,3.15,5.23,6.91,2.14a74.5,74.5,0,0,1,.39,35.05c-3.49,15.69-11.09,29.47-20,42.67-1,1.45-.29,4-.37,6.07,1.7-.92,4.06-1.41,5-2.84a219.06,219.06,0,0,0,12.13-20.06c9.67-18.88,14.47-38.84,9.08-59.84-7.48-29.13-27.41-46.26-56.27-51.49-29.77-5.39-54.33,5.07-72.45,29.69-.91,1.24-1.8,2.5-2.87,4-1-1.51-1.65-2.48-2.31-3.43-26.79-39.11-83.47-42.75-114.54-7C71.1,269.6,69,294.22,77.34,320.16c8.19,25.34,24,45.87,42.48,64.42,25.24,25.32,53.87,46.61,82.14,68.34,3.51,2.7,5.88,2.45,9.11-.1,14.26-11.24,28.69-22.26,42.89-33.57,1.4-1.12,1.65-3.69,2.43-5.6a60.07,60.07,0,0,0-6,1.13c-.89.25-1.57,1.2-2.35,1.82l-41.16,32.14a12.16,12.16,0,0,1-1.76-.92c-23.67-19.18-47.67-38-70.88-57.7A186.74,186.74,0,0,1,93.83,342.08Zm.47,169.51.1-2.31c4-1.86,7.83-4.39,12-5.44,10.63-2.65,21.41-4.71,32.16-6.86,3.1-.61,5.67-1.51,5.09-5.29-.54-3.52-3.19-3.87-6.08-3.31-10.93,2.12-22,3.69-32.7,6.67-5.72,1.59-11.24,5-16,8.72s-4.52,9.43-.07,13.52a36.15,36.15,0,0,0,10,6.37c14.54,6.25,30.1,8.23,45.65,9.91a451.41,451.41,0,0,0,85.81.92c10.76-.9,21.44-2.75,32.15-4.19.66-.09,1.55-.15,1.88-.58,1.29-1.62,2.39-3.39,3.57-5.1-1.76-1.08-3.63-3.24-5.26-3.07-9.92,1-19.75,3-29.68,3.91-30.44,2.68-60.93,2.91-91.26-1.11-12.8-1.69-25.4-5-38-8C100.38,515.59,97.42,513.23,94.3,511.59Zm250.41-78.78c0-11.82.18-22.66-.2-33.47-.06-1.73-2.67-3.37-4.11-5-1.55,1.62-3.16,3.19-4.6,4.9-.33.4-.05,1.3-.07,2-.63,23.47-1.32,46.94-1.87,70.41-.28,11.81-4.11,22.15-12.28,30.76-2.22,2.33-3.41,4.93-.85,7.4s5.15.94,7.29-1.33c7.28-7.71,12.59-16.64,13.58-27.22C343.13,464.77,343.76,448.29,344.71,432.81ZM64.88,195.16c0,2.16.08,4.33,0,6.49-.16,3.45.24,6.79,4.58,6.77,4.09,0,4.21-3.26,4.3-6.48.22-8,.06-16.05,1.16-23.94,1.63-11.77,8.71-20.66,17.31-28.41,2.32-2.09,4-4.47,1.61-7.27-2.69-3.18-5.37-1.51-7.64.86-3.46,3.59-7.07,7.08-10.21,10.94C66.22,166.12,64.73,180.42,64.88,195.16Z"/><path class="cls-1" d="M96.39,77.4c20.45,2,40.26,4.19,60.11,5.81,13.43,1.1,26.92,1.47,40.39,2,2.8.11,5.85.08,8.35-.94,2-.82,4.46-3.12,4.66-5s-1.69-4.69-3.47-5.91-4.7-1.48-7.14-1.64c-22.91-1.46-45.85-2.59-68.75-4.3a231,231,0,0,1-27.12-4.05c-7.54-1.47-8.32-3.53-5.63-11.13,20.07,8.2,41.4,9.3,62.59,10.2,22.78,1,45.62,1.33,68.41.75,23.08-.59,46.26-1.52,68.77-7.72,3.32-.91,6.47-2.41,10.16-3.81,0,7.74-.05,15.19,0,22.65.09,9.37.24,9.94-9.34,11.63-14.72,2.59-29.54,5.27-44.41,6.16-25.06,1.5-50.24,2.77-75.3,2-26.2-.79-52.52-2.59-78.09-9.55C96.2,83.4,94,81.55,96.39,77.4Z"/><path class="cls-1" d="M124.1,46.09c8.56-.75,17.1-2.06,25.66-2.16,27.48-.29,55-.11,82.45-.19,2.59,0,6.78,1.4,6.91-2.56.12-3.79-4.06-3-6.74-3.17-15.12-.7-30.24-1.31-45.35-2,39.11.44,78.37-.69,116.54,9.73.07.84.14,1.68.2,2.53-6,1.41-11.95,3.59-18,4.12-23.87,2.07-47.77,4-71.69,5.22-14.75.75-29.57.14-44.36.14V56.45c17,0,34,.11,50.95-.05,7-.06,14-.47,20.94-1.19,1.87-.19,3.55-2.09,5.32-3.21-1.83-.85-3.66-2.46-5.48-2.45-26.81.22-53.63,1-80.44.88-12.27,0-24.54-1.6-36.81-2.47Z"/><path class="cls-1" d="M88.79,92c17.45,10.63,37.13,12.23,56.42,13.23,32.07,1.65,64.25,2.4,96.35,1.79,18.34-.35,36.62-4,54.89-6.49,3.7-.51,7.18-2.53,10.8-3.74,1.95-.65,4-1,6.27-1.63.71,4.56-1.85,6.41-4.65,7.18-9.58,2.64-19.15,5.87-28.95,7.11-41.3,5.23-82.76,4-124.18,1.4-18.11-1.13-36.15-2.94-53.6-8.31C96.41,100.73,91.25,98.05,88.79,92Z"/><path class="cls-1" d="M202.37,78.35c-16.94,4-103.45-4.88-108.26-11.16C129.9,76.21,166.32,75.4,202.37,78.35Z"/><path class="cls-1" d="M100.64,45.87l15.22-4.33c-3.73,3.39-5,6.44-.57,10.52l-14.63-4.28Z"/><path d="M93.83,342.08a186.74,186.74,0,0,0,40.4,48c23.21,19.72,47.21,38.52,70.88,57.7a12.16,12.16,0,0,0,1.76.92L248,416.6c.78-.62,1.46-1.57,2.35-1.82a60.07,60.07,0,0,1,6-1.13c-.78,1.91-1,4.48-2.43,5.6-14.2,11.31-28.63,22.33-42.89,33.57-3.23,2.55-5.6,2.8-9.11.1-28.27-21.73-56.9-43-82.14-68.34C101.31,366,85.53,345.5,77.34,320.16,69,294.22,71.1,269.6,89.5,248.39c31.07-35.8,87.75-32.16,114.54,7,.66,1,1.3,1.92,2.31,3.43,1.07-1.49,2-2.75,2.87-4,18.12-24.62,42.68-35.08,72.45-29.69,28.86,5.23,48.79,22.36,56.27,51.49,5.39,21,.59,41-9.08,59.84a219.06,219.06,0,0,1-12.13,20.06c-.93,1.43-3.29,1.92-5,2.84.08-2.05-.61-4.62.37-6.07,8.91-13.2,16.51-27,20-42.67a74.5,74.5,0,0,0-.39-35.05c-3.76,3.09-5.49,1.4-6.91-2.14-9.21-23-26.8-35.56-50.9-37.56-26.16-2.17-46.12,9.08-58.88,32.28-2,3.67-4.58,6.28-8.85,6.17s-6.59-3.07-8.57-6.66c-11.74-21.29-30.06-32.38-54.19-32-23.83.36-42.34,11.27-53.18,32.85-9.63,19.17-6.32,38.52,1.69,57.43,1.48,3.51,3.38,6.86,5.13,10.26S98.24,341.59,93.83,342.08Z"/><path d="M94.3,511.59c3.12,1.64,6.08,4,9.41,4.79,12.59,3,25.19,6.28,38,8,30.33,4,60.82,3.79,91.26,1.11,9.93-.87,19.76-2.87,29.68-3.91,1.63-.17,3.5,2,5.26,3.07-1.18,1.71-2.28,3.48-3.57,5.1-.33.43-1.22.49-1.88.58-10.71,1.44-21.39,3.29-32.15,4.19a451.41,451.41,0,0,1-85.81-.92c-15.55-1.68-31.11-3.66-45.65-9.91a36.15,36.15,0,0,1-10-6.37c-4.45-4.09-4.67-9.82.07-13.52s10.26-7.13,16-8.72c10.69-3,21.77-4.55,32.7-6.67,2.89-.56,5.54-.21,6.08,3.31.58,3.78-2,4.68-5.09,5.29-10.75,2.15-21.53,4.21-32.16,6.86-4.2,1.05-8,3.58-12,5.44Z"/><path d="M344.71,432.81c-.95,15.48-1.58,32-3.11,48.36-1,10.58-6.3,19.51-13.58,27.22-2.14,2.27-4.64,3.89-7.29,1.33s-1.37-5.07.85-7.4c8.17-8.61,12-18.95,12.28-30.76.55-23.47,1.24-46.94,1.87-70.41,0-.66-.26-1.56.07-2,1.44-1.71,3.05-3.28,4.6-4.9,1.44,1.68,4.05,3.32,4.11,5C344.89,410.15,344.71,421,344.71,432.81Z"/><path d="M64.88,195.16c-.15-14.74,1.34-29,11.1-41,3.14-3.86,6.75-7.35,10.21-10.94,2.27-2.37,5-4,7.64-.86,2.38,2.8.71,5.18-1.61,7.27-8.6,7.75-15.68,16.64-17.31,28.41-1.1,7.89-.94,15.95-1.16,23.94-.09,3.22-.21,6.47-4.3,6.48-4.34,0-4.74-3.32-4.58-6.77C65,199.49,64.88,197.32,64.88,195.16Z"/><text class="cls-2" transform="translate(115.86 378.81)">ЗСУ</text></svg>