<svg id="Шар_1" data-name="Шар 1" xmlns="http://www.w3.org/2000/svg" viewBox="0 0 844.46 566.93"><defs><style>.cls-1{fill:#71743c;}.cls-2{fill:#1d1d1b;}.cls-3{fill:#fff;}.cls-4{fill:#55562e;}.cls-5{fill:#3a3920;}.cls-6{fill:#a6a063;}</style></defs><polygon class="cls-1" points="313.79 197.23 313.72 197.23 313.72 172.7 239.97 172.7 239.97 197.23 166.18 197.23 166.18 172.7 92.43 172.7 92.43 197.23 67.83 197.23 67.83 271.13 92.43 271.13 92.43 320.31 141.55 320.31 141.55 369.56 166.26 369.56 166.26 394.13 239.95 394.13 239.95 369.56 264.67 369.56 264.67 320.31 313.72 320.31 313.79 320.31 313.79 271.13 338.39 271.13 338.39 197.23 313.79 197.23"/><rect class="cls-2" x="67.83" y="172.7" width="24.53" height="24.53"/><polygon class="cls-3" points="116.9 197.23 92.36 197.23 92.36 221.77 92.36 246.3 116.9 246.3 116.9 221.77 141.43 221.77 141.43 197.23 116.9 197.23"/><rect class="cls-2" x="166.23" y="172.7" width="24.53" height="24.53"/><rect class="cls-2" x="215.5" y="172.7" width="24.53" height="24.53"/><rect class="cls-2" x="313.84" y="172.7" width="24.53" height="24.53"/><rect class="cls-2" x="190.76" y="197.23" width="24.53" height="24.53"/><rect class="cls-2" x="43.29" y="197.33" width="24.53" height="73.8"/><rect class="cls-2" x="117.06" y="123.61" width="24.53" height="73.8" transform="translate(289.83 31.18) rotate(90)"/><rect class="cls-2" x="338.39" y="197.33" width="24.53" height="73.8"/><rect class="cls-2" x="264.67" y="123.61" width="24.53" height="73.8" transform="translate(116.43 437.44) rotate(-90)"/><rect class="cls-2" x="67.83" y="271.13" width="24.6" height="24.6"/><polygon class="cls-4" points="264.41 172.79 264.41 197.52 239.63 197.52 239.63 222.05 264.41 222.05 264.41 246.35 264.52 246.35 264.52 271.13 338.39 271.13 338.39 197.57 313.5 197.57 313.5 197.52 289.05 197.52 289.05 172.79 264.41 172.79"/><rect class="cls-2" x="92.43" y="295.73" width="24.59" height="24.59"/><rect class="cls-2" x="117.02" y="320.31" width="24.53" height="24.53"/><rect class="cls-5" x="92.43" y="271.08" width="49.12" height="24.65"/><rect class="cls-5" x="190.76" y="271.1" width="98.47" height="24.65"/><rect class="cls-5" x="264.66" y="222" width="24.61" height="73.65" transform="translate(535.79 -18.14) rotate(90)"/><polygon class="cls-5" points="264.59 320.26 289.15 320.26 289.15 271.14 264.59 271.14 264.59 295.73 215.47 295.73 215.47 344.85 264.59 344.85 264.59 320.26"/><rect class="cls-6" x="43.39" y="221.77" width="73.47" height="24.65" transform="translate(314.23 153.97) rotate(90)"/><rect class="cls-6" x="92.55" y="172.34" width="73.47" height="24.65" transform="translate(258.56 369.32) rotate(180)"/><rect class="cls-2" x="141.55" y="344.85" width="24.72" height="24.72"/><rect class="cls-2" x="166.26" y="369.56" width="24.56" height="24.56"/><polygon class="cls-6" points="239.95 377.63 239.95 361.17 239.95 344.76 215.4 344.76 215.4 320.31 190.77 320.31 190.67 369.47 190.67 377.63 190.67 394.1 215.4 394.1 239.95 394.1 239.95 377.63"/><rect class="cls-2" x="313.79" y="271.13" width="24.6" height="24.6" transform="translate(609.52 -42.66) rotate(90)"/><rect class="cls-2" x="289.2" y="295.73" width="24.59" height="24.59" transform="translate(609.52 6.52) rotate(90)"/><rect class="cls-2" x="264.67" y="320.31" width="24.53" height="24.53" transform="translate(609.52 55.65) rotate(90)"/><rect class="cls-2" x="239.95" y="344.85" width="24.72" height="24.72" transform="translate(609.52 104.9) rotate(90)"/><rect class="cls-2" x="215.39" y="369.56" width="24.56" height="24.56" transform="translate(609.52 154.17) rotate(90)"/><rect class="cls-2" x="190.83" y="394.13" width="24.56" height="24.56"/><path class="cls-2" d="M422.77,245.77c-.62,1.7-1.47,2.55-2.56,2.55q-2.43,0-2.43-3.48V231c0-1,.61-1.7,1.85-2.09a12.45,12.45,0,0,0,8.48-4.41q3-3.72,3-10V184.12q0-6.17-4.76-8.83c-1.63-.85-2.44-1.78-2.44-2.79,0-1.54,1.24-2.32,3.71-2.32h21.6v5.11h-5.46q-4.75,0-6.15,2.09t-1.39,6.74v30.41q0,9-4.42,14.05h17.42v5.11h-12Q426.6,235,422.77,245.77Zm30.42-75.59h21.94c2.4,0,3.6.86,3.6,2.56a2.52,2.52,0,0,1-2,2.44,6,6,0,0,0-2.38,1.21,4.07,4.07,0,0,0-.41,2.27v46.56a3.66,3.66,0,0,0,1.86,3,5.67,5.67,0,0,0,1.57.69,2,2,0,0,1,1.33,2.09v13.82c0,2.32-.81,3.48-2.44,3.48-1,0-1.9-.85-2.67-2.55q-3.83-10.8-14.4-12.08h-6Z"/><path class="cls-2" d="M523.7,170.18v5.11c-3.41,1.09-5.11,3.33-5.11,6.74v12.3a7.68,7.68,0,0,0,1.1,4.59c.74,1,2.07,1.57,4,1.8v5q-5.12.47-5.11,8.13v7.78q0,6.27-3.48,9.75t-9.64,3.48a17.16,17.16,0,0,1-8.36-2,17.68,17.68,0,0,1-4.06-3.95,7.19,7.19,0,0,1-1.75-4.06,2.11,2.11,0,0,1,.88-1.8,2.72,2.72,0,0,1,1.56-.64,3.17,3.17,0,0,1,2.33,1.39c.46.7.92,1.05,1.39,1.05.7,0,1-.47,1-1.39v-9.64q0-5.34,5-8.25a17.42,17.42,0,0,1,3.94-1.8,34,34,0,0,1,5.81-1.21q-7.2-2.1-10-4.53-5.1-3.84-5.1-11.61,0-8.94,7.43-13.24a19,19,0,0,1,6.44-2.44,69.52,69.52,0,0,1,10.62-.58Zm3.71,0h22.06c2.25,0,3.37.86,3.37,2.56,0,1.08-.66,1.87-2,2.38a6.41,6.41,0,0,0-2.38,1.27,4.07,4.07,0,0,0-.41,2.27v46.56a3.92,3.92,0,0,0,.52,2.38,5,5,0,0,0,2.38,1.16,2.28,2.28,0,0,1,1.86,2.38c0,1.7-1.12,2.55-3.37,2.55H525.79q-4.06,0-4.07-2.67c0-1.24.78-2.05,2.33-2.44a7.2,7.2,0,0,0,2.84-1.1,4.13,4.13,0,0,0,.52-2.61Z"/><path class="cls-2" d="M592,178.66v46.21a4.13,4.13,0,0,0,.52,2.61,7.12,7.12,0,0,0,2.84,1.1c1.55.39,2.32,1.2,2.32,2.44q0,2.67-4.18,2.67H569.89q-3.5,0-3.49-2.55a2.4,2.4,0,0,1,1.92-2.38,6.26,6.26,0,0,0,2.38-1.16,4,4,0,0,0,.46-2.38V178.66a3.76,3.76,0,0,0-.46-2.21,6.39,6.39,0,0,0-2.38-1.33,2.54,2.54,0,0,1-1.92-2.38c0-1.7,1.16-2.56,3.49-2.56h23.33c2.4,0,3.6.86,3.6,2.56a2.43,2.43,0,0,1-1.86,2.32,6,6,0,0,0-2.43,1.39A3.42,3.42,0,0,0,592,178.66Zm8.7,42.49V213q0-8-5.11-8.48v-5.46q4.53-.47,6.27-3.42c1.17-2,1.75-5.59,1.75-10.86a17.54,17.54,0,0,1,2.9-9.87q3.82-5.81,11.38-5.8A10.07,10.07,0,0,1,625,172a9.34,9.34,0,0,1,3,7,8.4,8.4,0,0,1-2.78,6.27,9.11,9.11,0,0,1-6.5,2.67h-.35q-5.11,0-7.78-5.71a3.67,3.67,0,0,0-.58-.62.76.76,0,0,1-.23-.18q-.36,0-.93,1.11a4.75,4.75,0,0,0-.58,2.26V186a31,31,0,0,1-1.22,9.64,10.46,10.46,0,0,1-4.24,5.57,31.4,31.4,0,0,1,7.37.82,13.17,13.17,0,0,1,5.17,2.2,13.1,13.1,0,0,1,5.34,9.64V223c0,1,.31,1.51.94,1.51.47,0,1-.35,1.42-1,.94-1.09,1.73-1.63,2.36-1.63a2.33,2.33,0,0,1,1.65.87,2.62,2.62,0,0,1,.83,1.8,8,8,0,0,1-1.8,4.18,18,18,0,0,1-4,4.18,16.08,16.08,0,0,1-8.24,2q-6.27,0-9.75-3.6T600.65,221.15Z"/><path class="cls-2" d="M664.39,175.88a1.46,1.46,0,0,0-.81,1.51l.47,2.21,13,24.06-8.73,18.77-23.22-44.58a7.24,7.24,0,0,0-2.09-2.79c-1.39-.77-2.09-1.59-2.09-2.44,0-1.62,1.2-2.44,3.6-2.44h18.81c2.48,0,3.71.86,3.71,2.56a2.69,2.69,0,0,1-1.27,2.21Zm-20.9,49.34a8.82,8.82,0,0,1,2.7-6.51,9.14,9.14,0,0,1,6.69-2.67q5.39,0,8.44,5.69.58,1.86,1,1.86c.94,0,1.57-1,1.88-3l2.81,5-1.4,2.91a13.05,13.05,0,0,1-11.73,6.62,10.39,10.39,0,0,1-7.45-2.85A9.31,9.31,0,0,1,643.49,225.22Zm35-49.82a7.67,7.67,0,0,1-2.15-1.1,2,2,0,0,1-.4-1.45q0-2.67,4.53-2.67h11.37q3.38,0,3.37,2.67c0,1-.7,1.82-2.09,2.44a11.41,11.41,0,0,0-5.7,5.57l-1,2.32-7.7,17.1-2.85-5.77,5.07-11.34a8.9,8.9,0,0,0,.74-3.71Q681.58,176.67,678.44,175.4Z"/><path class="cls-2" d="M734.64,228.35l1.51.47a2.34,2.34,0,0,1,1.74,2.43c0,1.63-1.13,2.44-3.37,2.44H711.3q-3.48,0-3.48-2.55a2.31,2.31,0,0,1,1.91-2.32,5.24,5.24,0,0,0,2.38-1.17,4.22,4.22,0,0,0,.47-2.43V178.66a3.74,3.74,0,0,0-.47-2.21,6.88,6.88,0,0,0-2.44-1.39,2.3,2.3,0,0,1-1.85-2.32c0-1.7,1.16-2.56,3.48-2.56h23.22c2.24,0,3.37.86,3.37,2.56a2.28,2.28,0,0,1-1.74,2.32l-1.51.46c-.86.47-1.28,1.51-1.28,3.14v46.56C733.36,226.92,733.78,228,734.64,228.35ZM771,174a6.29,6.29,0,0,0-3.37,2.21,7.87,7.87,0,0,0-.93,4.3V222.2a11.32,11.32,0,0,0,.93,5.34,5.32,5.32,0,0,0,3.37,2.32v5a23.94,23.94,0,0,1-19-8.67q-7.44-8.69-7.43-21.86h-7.32v-5.23h7.32q0-13.05,7.54-21.62A24.17,24.17,0,0,1,771,168.91Zm3.83,55.85a4.92,4.92,0,0,0,3.31-2.38,11.21,11.21,0,0,0,1-5.28V180.52c0-3.41-1.44-5.58-4.3-6.51v-5.1a23.06,23.06,0,0,1,19,9.34q7.32,9.34,7.32,23.75T794,225.62a23.07,23.07,0,0,1-19.16,9.23Z"/><path class="cls-2" d="M484.58,388.51h1V398a45,45,0,0,1-11.93-1.79,34.51,34.51,0,0,1-10.52-4.57q-11.43-6.77-11.43-19.51a18.1,18.1,0,0,1,4.76-12.73,15.68,15.68,0,0,1,12.08-5.18,14.75,14.75,0,0,1,11.1,4.78,15.7,15.7,0,0,1,4.55,11.16q0,10.17-9.9,12.55a2.16,2.16,0,0,0-.4.8,8.82,8.82,0,0,1-.79,1.6,9.59,9.59,0,0,0,4.6,2.49A25.07,25.07,0,0,0,484.58,388.51ZM464.86,291l2.8-.62a88.3,88.3,0,0,1,9.76-3.89,40.62,40.62,0,0,1,8.18-1.43v8.76a29.84,29.84,0,0,0-14.45,8.66,28.47,28.47,0,0,0-7.58,13.84q-1.5,7.36-5.08,7.37-4.78,0-4.79-5.35V292.23q0-6.35,4-6.34a3.51,3.51,0,0,1,3.19,1.58l1.79,2.58A2.35,2.35,0,0,0,464.86,291Zm61.55,101.83a51.62,51.62,0,0,1-11.09,4A72.41,72.41,0,0,1,500.46,398h-8.92v-9.51c3.84,0,6.61-1,8.33-2.88s2.57-5.6,2.57-11v-16.9q0-12.12-10.9-13.32v-8.95c4,0,6.86-1.06,8.48-3.17s2.42-5.75,2.42-10.9V307.09q0-5.94-2.72-9.51T491.54,294V285.1h8.76q17.51,0,27.06,7.13t9.55,20.41a27.06,27.06,0,0,1-2.77,12.28,22,22,0,0,1-8.12,8.91,32.73,32.73,0,0,1-6.64,3.37,101,101,0,0,1-9.81,2.78,77,77,0,0,1,8.82,2.08,58.48,58.48,0,0,1,6.44,2.67q13.47,7.14,13.47,24.17Q538.3,384.56,526.41,392.87Z"/><path class="cls-2" d="M601.48,308.67v69.15q0,9.31,9.11,10.3v9.51q-22,0-34.47-14.46t-12.49-40q0-22.78,10.31-37.65a52.1,52.1,0,0,1,15.95-14.66q9.6-5.74,18.32-5.74h2.38v9.7Q601.47,296,601.48,308.67Zm43.78,20.61q-3.76,0-5-5.15-7.14-26.94-23.38-29.33v-9.51a47,47,0,0,1,7.73,1.59q1.19.4,7.33,2.77a16.41,16.41,0,0,0,5.35,1.39,3.46,3.46,0,0,0,3.36-2l1.19-2.18a3.72,3.72,0,0,1,3.57-1.78c2.9,0,4.36,1.71,4.36,5.15v33.08Q649.82,329.29,645.26,329.28Zm-28.33,58.84a22.11,22.11,0,0,0,14.57-5.45,28.52,28.52,0,0,0,9.06-13.77q2-4.75,4.73-4.75a4.34,4.34,0,0,1,3.15,1.38,4.86,4.86,0,0,1,1.38,3.57c0,2.77-1.06,6-3.15,9.61a44.23,44.23,0,0,1-8.28,10.2q-9.84,8.71-21.46,8.72Z"/><path class="cls-2" d="M714.72,297a2.5,2.5,0,0,0-1.39,2.58l.79,3.77,22.22,41.05-14.89,32-39.62-76.08a12.46,12.46,0,0,0-3.57-4.75q-3.56-2-3.56-4.16c0-2.78,2-4.16,6.14-4.16h32.1q6.33,0,6.33,4.36a4.6,4.6,0,0,1-2.17,3.77Zm-35.66,84.19a15,15,0,0,1,4.6-11.09,15.55,15.55,0,0,1,11.4-4.56q9.21,0,14.41,9.71c.67,2.11,1.27,3.17,1.8,3.17,1.6,0,2.67-1.71,3.2-5.15l4.8,8.52-2.4,5q-7,11.29-20,11.29a17.74,17.74,0,0,1-12.71-4.85A15.88,15.88,0,0,1,679.06,381.18Zm59.63-85A13.11,13.11,0,0,1,735,294.3a3.42,3.42,0,0,1-.7-2.47q0-4.56,7.73-4.55h19.41q5.74,0,5.75,4.55,0,2.58-3.57,4.16a19.46,19.46,0,0,0-9.73,9.51l-1.78,3.95L739,338.63l-4.86-9.85,8.65-19.35A15,15,0,0,0,744,303.1Q744,298.36,738.69,296.18Z"/></svg>