<svg width="200" height="200" viewBox="0 0 200 200" fill="none" xmlns="http://www.w3.org/2000/svg">
<path d="M100 200C155.228 200 200 155.228 200 100C200 44.7715 155.228 0 100 0C44.7715 0 0 44.7715 0 100C0 155.228 44.7715 200 100 200Z" fill="url(#paint0_linear_684_1063)"/>
<path fill-rule="evenodd" clip-rule="evenodd" d="M45.2658 98.9444C74.4178 86.2433 93.8571 77.87 103.584 73.8244C131.355 62.2735 137.125 60.267 140.886 60.2007C141.714 60.1861 143.563 60.3911 144.761 61.3633C145.773 62.1842 146.051 63.2931 146.185 64.0715C146.318 64.8498 146.484 66.6227 146.352 68.0081C144.847 83.8205 138.335 122.193 135.022 139.903C133.621 147.397 130.86 149.909 128.188 150.155C122.381 150.69 117.971 146.317 112.347 142.631C103.545 136.861 98.5733 133.27 90.0301 127.64C80.157 121.134 86.5573 117.558 92.184 111.714C93.6565 110.184 119.243 86.9112 119.738 84.8C119.8 84.536 119.858 83.5517 119.273 83.032C118.688 82.5123 117.825 82.6901 117.203 82.8314C116.32 83.0317 102.26 92.325 75.022 110.711C71.0311 113.452 67.4162 114.787 64.1774 114.717C60.6069 114.64 53.7386 112.698 48.6328 111.038C42.3703 109.003 37.393 107.926 37.8264 104.469C38.0521 102.668 40.5319 100.827 45.2658 98.9444Z" fill="white"/>
<defs>
<linearGradient id="paint0_linear_684_1063" x1="100" y1="0" x2="100" y2="198.517" gradientUnits="userSpaceOnUse">
<stop stop-color="#B5B388"/>
<stop offset="1" stop-color="#535C38"/>
</linearGradient>
</defs>
</svg>
